<svg width="485" height="485" viewBox="0 0 485 485" fill="none" xmlns="http://www.w3.org/2000/svg">
<circle cx="242.5" cy="242.5" r="242.5" fill="#D9754E"/>
<circle cx="240.5" cy="242.5" r="223.5" fill="#A0BBB6"/>
<circle cx="242.5" cy="242.5" r="203.5" fill="#F8D06E"/>
<ellipse cx="242.5" cy="243" rx="180.5" ry="184" fill="#F0D8B4"/>
<g filter="url(#filter0_d_95_208)">
<path d="M96.502 282C82.702 281.85 78.502 276.75 78.502 268.5C78.502 255.9 93.952 235.95 93.952 214.65C93.952 199.8 82.552 189.6 82.552 183.6C82.552 178.95 85.702 176.7 96.502 176.7H122.152C137.752 176.7 151.102 210.45 151.102 239.7C151.102 262.2 143.152 282 122.152 282H96.502ZM105.202 222.9C105.202 234.15 109.702 244.35 120.952 244.35C132.052 244.35 136.702 234.15 136.702 222.9C136.702 209.1 129.652 193.5 120.952 193.5C112.102 193.5 105.202 209.1 105.202 222.9ZM215.825 200.55C224.375 200.55 226.925 202.35 226.925 205.95C226.925 210.45 218.375 218.4 218.375 229.95C218.375 246.45 232.175 261.9 232.175 271.5C232.175 277.95 228.275 282 215.825 282H212.675C205.625 282 203.075 280.35 202.175 277.35C201.575 274.8 200.375 273.9 198.725 273.9C193.925 273.9 185.075 282 173.075 282C160.625 282 156.725 277.95 156.725 271.5C156.725 261.9 170.525 246.45 170.525 229.95C170.525 218.4 161.975 210.45 161.975 205.95C161.975 202.35 164.525 200.55 173.225 200.55C186.725 200.55 190.625 204.6 190.625 211.05C190.625 220.65 177.575 228.3 177.575 242.85C177.575 253.65 186.125 260.4 194.225 260.4C199.325 260.4 204.125 258.9 206.675 251.1C208.625 244.5 210.275 237.3 210.275 229.95C210.275 218.4 201.725 210.45 201.725 205.95C201.725 202.35 204.125 200.55 212.675 200.55H215.825ZM258.476 282C246.176 281.85 242.276 276.9 242.276 268.5C242.276 255.9 256.076 237.15 256.076 215.85V215.55C255.626 210 253.976 208.2 251.726 208.2C247.826 208.2 241.826 213.75 237.476 213.75C234.776 213.75 232.826 208.8 232.826 205.35C232.826 202.65 234.176 200.1 237.476 200.1C239.726 200.1 245.126 201.9 248.876 201.9C252.476 201.9 253.526 200.4 252.626 196.95C250.826 191.25 248.876 186.75 248.876 183.6C248.876 178.95 251.126 176.7 258.476 176.7H261.926C269.276 176.85 271.376 179.1 271.376 183.6C271.376 186.75 269.426 191.25 267.626 196.95C266.726 200.4 267.776 201.9 271.376 201.9C275.126 201.9 280.526 200.1 282.776 200.1C286.076 200.1 287.426 202.65 287.426 205.35C287.426 208.8 285.476 213.75 282.776 213.75C278.426 213.75 272.426 208.2 268.526 208.2C266.276 208.2 264.626 210 264.176 215.55V215.85C264.176 237.15 278.126 255.9 278.126 268.5C278.126 276.75 274.376 281.85 261.926 282H258.476ZM317.845 308.25C306.295 308.25 291.895 301.65 291.895 292.05C291.895 286.35 295.345 282 303.145 282C311.395 282 317.845 276.45 323.395 262.35C298.495 261.45 291.895 250.05 291.895 216.9C291.895 204.6 298.045 200.55 304.645 200.55C311.995 200.55 316.645 205.65 316.645 210.15C316.645 220.65 310.645 231 310.645 241.5C310.645 250.2 316.195 255.15 320.995 255.15C323.695 255.15 326.095 253.65 327.145 250.5L327.295 249.75C329.545 241.2 330.295 234.3 330.295 228.6C330.295 218.7 328.045 212.85 328.045 209.25C328.045 202.05 335.245 200.55 342.595 200.55H346.045C350.545 200.55 354.745 202.2 354.745 209.25C354.745 225.45 334.345 231.9 334.345 260.55C334.345 270.45 337.045 279.75 337.045 287.4C337.045 300.15 333.895 308.25 317.845 308.25ZM389.044 282C372.844 282 355.744 272.4 355.744 252.6C355.744 243.3 362.044 242.7 371.194 242.7C375.694 242.7 374.344 253.05 386.344 253.05C392.494 253.05 395.344 249.45 395.344 246.3C395.344 233.7 364.144 236.7 364.144 216.15C364.144 204.75 376.444 200.55 389.194 200.55C397.594 200.55 408.994 204 408.994 213.45C408.994 219.45 407.944 223.2 401.644 223.2C396.544 223.2 392.194 222.75 392.194 218.1C392.194 213.9 391.594 212.55 389.344 212.55C384.844 212.55 382.894 216.6 382.894 220.05C382.894 236.1 417.694 237.6 417.694 258.9C417.694 274.2 403.744 282 389.044 282Z" fill="#D9754E"/>
</g>
<defs>
<filter id="filter0_d_95_208" x="74.502" y="176.7" width="347.192" height="139.55" filterUnits="userSpaceOnUse" color-interpolation-filters="sRGB">
<feFlood flood-opacity="0" result="BackgroundImageFix"/>
<feColorMatrix in="SourceAlpha" type="matrix" values="0 0 0 0 0 0 0 0 0 0 0 0 0 0 0 0 0 0 127 0" result="hardAlpha"/>
<feOffset dy="4"/>
<feGaussianBlur stdDeviation="2"/>
<feComposite in2="hardAlpha" operator="out"/>
<feColorMatrix type="matrix" values="0 0 0 0 0 0 0 0 0 0 0 0 0 0 0 0 0 0 0.25 0"/>
<feBlend mode="normal" in2="BackgroundImageFix" result="effect1_dropShadow_95_208"/>
<feBlend mode="normal" in="SourceGraphic" in2="effect1_dropShadow_95_208" result="shape"/>
</filter>
</defs>
</svg>
